<?xml version="1.0" encoding="utf-8"?>
<!-- Generator: Adobe Illustrator 24.1.2, SVG Export Plug-In . SVG Version: 6.00 Build 0)  -->
<svg version="1.1" id="Layer_1" xmlns="http://www.w3.org/2000/svg" xmlns:xlink="http://www.w3.org/1999/xlink" x="0px" y="0px"
	 viewBox="0 0 1000 1000" style="enable-background:new 0 0 1000 1000;" xml:space="preserve">
<style type="text/css">
	.st0{opacity:0.5;fill:#81D8DF;}
	.st1{fill:#81D8DF;}
	.st2{fill:#6EC8DF;}
	.st3{fill:#57B7DD;}
</style>
<g>
	<path class="st0" d="M161,144.2v703.1c0,37.4,30.3,67.8,67.8,67.8h330.4c0,0,279.5,16.9,279.5-245.6
		c0-245.6-211.8-245.6-211.8-245.6s160.9-25.4,160.9-160.9c0-144-101.6-186.4-228.7-186.4H228.8C191.3,76.4,161,106.7,161,144.2z"/>
	<g>
		<path class="st1" d="M423.6,118.7H144.1c-14,0-25.4-11.4-25.4-25.4v0c0-14,11.4-25.4,25.4-25.4h279.5c14,0,25.4,11.4,25.4,25.4v0
			C449,107.4,437.6,118.7,423.6,118.7z"/>
		<path class="st1" d="M804.8,525.3H618.4c-14,0-25.4-11.4-25.4-25.4v0c0-14,11.4-25.4,25.4-25.4h186.4c14,0,25.4,11.4,25.4,25.4v0
			C830.2,514,818.8,525.3,804.8,525.3z"/>
		<path class="st2" d="M593,118.7h-67.8c-14,0-25.4-11.4-25.4-25.4v0c0-14,11.4-25.4,25.4-25.4H593c14,0,25.4,11.4,25.4,25.4v0
			C618.4,107.4,607,118.7,593,118.7z"/>
		<path class="st2" d="M694.6,118.7L694.6,118.7c-14,0-25.4-11.4-25.4-25.4v0c0-14,11.4-25.4,25.4-25.4h0c14,0,25.4,11.4,25.4,25.4
			v0C720.1,107.4,708.7,118.7,694.6,118.7z"/>
		<path class="st2" d="M296.5,220.4H144.1c-14,0-25.4-11.4-25.4-25.4v0c0-14,11.4-25.4,25.4-25.4h152.5c14,0,25.4,11.4,25.4,25.4v0
			C321.9,209,310.6,220.4,296.5,220.4z"/>
		<path class="st2" d="M567.6,322H245.7c-14,0-25.4-11.4-25.4-25.4v0c0-14,11.4-25.4,25.4-25.4h321.9c14,0,25.4,11.4,25.4,25.4v0
			C593,310.7,581.6,322,567.6,322z"/>
		<path class="st2" d="M516.8,525.3H321.9c-14,0-25.4-11.4-25.4-25.4v0c0-14,11.4-25.4,25.4-25.4h194.8c14,0,25.4,11.4,25.4,25.4v0
			C542.2,514,530.8,525.3,516.8,525.3z"/>
		<path class="st2" d="M643.8,931.9H449c-14,0-25.4-11.4-25.4-25.4l0,0c0-14,11.4-25.4,25.4-25.4h194.8c14,0,25.4,11.4,25.4,25.4
			l0,0C669.2,920.6,657.9,931.9,643.8,931.9z"/>
		<path class="st2" d="M838.6,728.6H677.7c-14,0-25.4-11.4-25.4-25.4v0c0-14,11.4-25.4,25.4-25.4h160.9c14,0,25.4,11.4,25.4,25.4v0
			C864.1,717.3,852.7,728.6,838.6,728.6z"/>
		<path class="st2" d="M694.6,423.7H593c-14,0-25.4-11.4-25.4-25.4v0c0-14,11.4-25.4,25.4-25.4h101.6c14,0,25.4,11.4,25.4,25.4v0
			C720.1,412.3,708.7,423.7,694.6,423.7z"/>
		<path class="st2" d="M271.1,830.3H144.1c-14,0-25.4-11.4-25.4-25.4v0c0-14,11.4-25.4,25.4-25.4h127.1c14,0,25.4,11.4,25.4,25.4v0
			C296.5,818.9,285.1,830.3,271.1,830.3z"/>
		<path class="st1" d="M398.2,220.4L398.2,220.4c-14,0-25.4-11.4-25.4-25.4v0c0-14,11.4-25.4,25.4-25.4h0c14,0,25.4,11.4,25.4,25.4
			v0C423.6,209,412.2,220.4,398.2,220.4z"/>
		<path class="st1" d="M567.6,627L567.6,627c-14,0-25.4-11.4-25.4-25.4v0c0-14,11.4-25.4,25.4-25.4h0c14,0,25.4,11.4,25.4,25.4v0
			C593,615.6,581.6,627,567.6,627z"/>
		<path class="st1" d="M372.8,830.3L372.8,830.3c-14,0-25.4-11.4-25.4-25.4v0c0-14,11.4-25.4,25.4-25.4h0c14,0,25.4,11.4,25.4,25.4
			v0C398.2,818.9,386.8,830.3,372.8,830.3z"/>
		<path class="st1" d="M745.5,931.9L745.5,931.9c-14,0-25.4-11.4-25.4-25.4l0,0c0-14,11.4-25.4,25.4-25.4h0
			c14,0,25.4,11.4,25.4,25.4l0,0C770.9,920.6,759.5,931.9,745.5,931.9z"/>
		<path class="st1" d="M779.4,322H669.2c-14,0-25.4-11.4-25.4-25.4v0c0-14,11.4-25.4,25.4-25.4h110.1c14,0,25.4,11.4,25.4,25.4v0
			C804.8,310.7,793.4,322,779.4,322z"/>
		<path class="st1" d="M855.6,627H669.2c-14,0-25.4-11.4-25.4-25.4v0c0-14,11.4-25.4,25.4-25.4h186.4c14,0,25.4,11.4,25.4,25.4v0
			C881,615.6,869.6,627,855.6,627z"/>
		<path class="st3" d="M804.8,220.4H499.8c-14,0-25.4-11.4-25.4-25.4v0c0-14,11.4-25.4,25.4-25.4h304.9c14,0,25.4,11.4,25.4,25.4v0
			C830.2,209,818.8,220.4,804.8,220.4z"/>
		<path class="st3" d="M220.3,525.3h-76.2c-14,0-25.4-11.4-25.4-25.4v0c0-14,11.4-25.4,25.4-25.4h76.2c14,0,25.4,11.4,25.4,25.4v0
			C245.7,514,234.3,525.3,220.3,525.3z"/>
		<path class="st3" d="M465.9,627H144.1c-14,0-25.4-11.4-25.4-25.4v0c0-14,11.4-25.4,25.4-25.4h321.9c14,0,25.4,11.4,25.4,25.4v0
			C491.3,615.6,480,627,465.9,627z"/>
		<path class="st3" d="M779.4,830.3H474.4c-14,0-25.4-11.4-25.4-25.4v0c0-14,11.4-25.4,25.4-25.4h304.9c14,0,25.4,11.4,25.4,25.4v0
			C804.8,818.9,793.4,830.3,779.4,830.3z"/>
		<path class="st3" d="M144.1,322L144.1,322c-14,0-25.4-11.4-25.4-25.4v0c0-14,11.4-25.4,25.4-25.4h0c14,0,25.4,11.4,25.4,25.4v0
			C169.5,310.7,158.1,322,144.1,322z"/>
		<path class="st1" d="M491.3,423.7H144.1c-14,0-25.4-11.4-25.4-25.4v0c0-14,11.4-25.4,25.4-25.4h347.3c14,0,25.4,11.4,25.4,25.4v0
			C516.8,412.3,505.4,423.7,491.3,423.7z"/>
		<path class="st1" d="M576.1,728.6h-432c-14,0-25.4-11.4-25.4-25.4v0c0-14,11.4-25.4,25.4-25.4h432c14,0,25.4,11.4,25.4,25.4v0
			C601.5,717.3,590.1,728.6,576.1,728.6z"/>
		<path class="st1" d="M347.3,931.9H144.1c-14,0-25.4-11.4-25.4-25.4v0c0-14,11.4-25.4,25.4-25.4h203.3c14,0,25.4,11.4,25.4,25.4v0
			C372.8,920.6,361.4,931.9,347.3,931.9z"/>
	</g>
</g>
</svg>
